<?xml version="1.0" standalone="no"?>
<!DOCTYPE svg PUBLIC "-//W3C//DTD SVG 20010904//EN"
 "http://www.w3.org/TR/2001/REC-SVG-20010904/DTD/svg10.dtd">
<svg version="1.0" xmlns="http://www.w3.org/2000/svg"
 width="128.000000pt" height="128.000000pt" viewBox="0 0 128.000000 128.000000"
 preserveAspectRatio="xMidYMid meet">
<g transform="translate(0.000000,128.000000) scale(0.100000,-0.100000)"
fill="#000000" stroke="none">
<path d="M981 1270 c-45 -11 -90 -58 -101 -105 -8 -36 -3 -63 24 -125 4 -10
-18 -51 -64 -115 -40 -55 -75 -107 -80 -115 -6 -10 -11 -11 -22 -3 -39 32
-140 23 -192 -18 l-26 -21 -104 79 -104 78 5 41 c19 145 -186 184 -228 44 -14
-45 7 -100 47 -126 27 -18 83 -23 119 -10 15 5 44 -12 126 -75 104 -81 106
-83 97 -112 -15 -42 -4 -112 26 -157 l26 -39 -56 -77 c-30 -43 -58 -84 -63
-92 -6 -11 -13 -12 -29 -3 -53 28 -145 2 -184 -52 -29 -41 -35 -114 -13 -161
52 -109 212 -117 275 -14 24 39 26 111 5 152 -8 15 -12 33 -8 40 4 6 33 47 64
91 l57 80 78 -1 78 -1 79 -116 c75 -112 78 -117 63 -139 -34 -48 -9 -150 44
-178 28 -15 112 -15 139 0 56 30 78 127 42 186 -25 41 -82 67 -129 60 l-37 -6
-77 115 -76 116 23 25 c14 15 27 35 30 45 7 22 9 22 73 9 43 -10 50 -15 61
-46 27 -75 123 -98 185 -43 44 38 54 83 31 133 -21 44 -59 66 -115 66 -33 0
-48 -6 -72 -30 -30 -30 -31 -30 -86 -20 -31 5 -57 10 -59 10 -2 0 -3 8 -3 18
0 10 -10 39 -23 65 l-23 45 79 115 79 114 38 -11 c33 -8 45 -6 85 15 162 83
73 311 -104 269z m100 -79 c36 -37 38 -79 5 -117 -50 -59 -146 -22 -146 56 0
82 84 118 141 61z m-843 -167 c28 -19 29 -57 2 -84 -27 -27 -55 -25 -79 7 -23
28 -20 59 7 81 21 16 43 15 70 -4z m478 -270 c123 -59 81 -244 -56 -244 -136
0 -179 184 -57 244 41 20 70 20 113 0z m411 -160 c15 -24 15 -29 2 -53 -27
-48 -109 -32 -109 22 0 56 76 77 107 31z m-736 -353 c21 -22 29 -39 29 -66 0
-51 -44 -95 -95 -95 -51 0 -95 44 -95 95 0 51 44 95 95 95 27 0 44 -8 66 -29z
m643 -52 c51 -40 22 -129 -43 -129 -65 0 -96 89 -45 129 15 12 34 21 44 21 10
0 29 -9 44 -21z"/>
</g>
</svg>
